
<svg width="142" height="32" viewBox="0 0 142 32" fill="none" xmlns="http://www.w3.org/2000/svg">
<rect x="0.799805" y="0.921875" width="30.397" height="30.397" rx="5.06616" fill="#5D5FEF"/>
<rect x="15.0945" y="8.96094" width="1.35701" height="7.23737" fill="white"/>
<rect x="15.0505" y="7.875" width="1.35701" height="12.0025" transform="rotate(51.8154 15.0505 7.875)" fill="white"/>
<rect x="15.3284" y="16.4375" width="1.35701" height="10.0834" transform="rotate(33.096 15.3284 16.4375)" fill="white"/>
<rect x="5.87793" y="16.4141" width="1.35701" height="10.0834" transform="rotate(-24.7049 5.87793 16.4141)" fill="white"/>
<rect x="24.9048" y="15.8047" width="1.35701" height="9.50213" transform="rotate(27.4657 24.9048 15.8047)" fill="white"/>
<rect x="5.54785" y="17" width="1.35701" height="17.5563" transform="rotate(-62.2575 5.54785 17)" fill="white"/>
<rect x="25.7207" y="16.1406" width="1.35701" height="17.6989" transform="rotate(62.9104 25.7207 16.1406)" fill="white"/>
<circle cx="15.9993" cy="8.02809" r="1.80934" fill="white"/>
<circle cx="15.9993" cy="16.1843" r="1.80934" fill="white"/>
<circle cx="6.95265" cy="16.1843" r="1.80934" fill="white"/>
<circle cx="10.5716" cy="24.3093" r="1.80934" fill="white"/>
<circle cx="25.0462" cy="16.1843" r="1.80934" fill="white"/>
<circle cx="21.4273" cy="24.3093" r="1.80934" fill="white"/>
<path d="M42.5068 21.3118C41.7436 21.3118 41.0535 21.1811 40.4366 20.9197C39.8302 20.6583 39.3492 20.2819 38.9937 19.7905C38.6383 19.2991 38.4553 18.7188 38.4448 18.0497H40.7973C40.8287 18.4993 40.9855 18.8547 41.2678 19.1161C41.5606 19.3775 41.9579 19.5082 42.4598 19.5082C42.9721 19.5082 43.3746 19.388 43.6674 19.1475C43.9602 18.8966 44.1065 18.5724 44.1065 18.1751C44.1065 17.851 44.0072 17.5844 43.8085 17.3753C43.6099 17.1662 43.359 17.0041 43.0557 16.8891C42.763 16.7636 42.3552 16.6277 41.8324 16.4813C41.1215 16.2722 40.5412 16.0683 40.0916 15.8697C39.6524 15.6606 39.2708 15.3521 38.9467 14.9444C38.633 14.5261 38.4762 13.972 38.4762 13.2819C38.4762 12.6337 38.6383 12.0691 38.9624 11.5881C39.2865 11.1072 39.7413 10.7412 40.3268 10.4903C40.9123 10.2289 41.5815 10.0982 42.3343 10.0982C43.4635 10.0982 44.3784 10.3753 45.0789 10.9294C45.7899 11.4731 46.182 12.2364 46.2552 13.2192H43.8399C43.819 12.8428 43.6569 12.5343 43.3537 12.2939C43.061 12.0429 42.6689 11.9175 42.1775 11.9175C41.7488 11.9175 41.4038 12.0272 41.1424 12.2468C40.8914 12.4664 40.766 12.7853 40.766 13.2035C40.766 13.4963 40.8601 13.742 41.0483 13.9406C41.2469 14.1288 41.4874 14.2857 41.7697 14.4111C42.0625 14.5261 42.4702 14.6621 42.993 14.8189C43.704 15.028 44.2843 15.2371 44.7339 15.4462C45.1835 15.6553 45.5703 15.969 45.8944 16.3872C46.2186 16.8055 46.3806 17.3544 46.3806 18.034C46.3806 18.6195 46.229 19.1632 45.9258 19.6651C45.6226 20.1669 45.1782 20.5695 44.5927 20.8727C44.0072 21.1654 43.3119 21.3118 42.5068 21.3118Z" fill="#111D31"/>
<path d="M56.9571 12.5134V21.202H54.7457V20.1042C54.4634 20.4806 54.0923 20.7786 53.6322 20.9981C53.1826 21.2073 52.6912 21.3118 52.158 21.3118C51.4784 21.3118 50.8772 21.1707 50.3544 20.8884C49.8316 20.5956 49.4186 20.1722 49.1154 19.618C48.8227 19.0534 48.6763 18.3842 48.6763 17.6105V12.5134H50.872V17.2969C50.872 17.9869 51.0445 18.5202 51.3895 18.8966C51.7345 19.2625 52.205 19.4455 52.801 19.4455C53.4074 19.4455 53.8832 19.2625 54.2282 18.8966C54.5732 18.5202 54.7457 17.9869 54.7457 17.2969V12.5134H56.9571Z" fill="#111D31"/>
<path d="M61.7897 13.7681C62.072 13.3708 62.4588 13.0414 62.9502 12.78C63.4521 12.5082 64.0219 12.3723 64.6597 12.3723C65.4021 12.3723 66.0712 12.5553 66.6672 12.9212C67.2736 13.2871 67.7494 13.8099 68.0944 14.4895C68.4499 15.1587 68.6276 15.9376 68.6276 16.8264C68.6276 17.7151 68.4499 18.5045 68.0944 19.1946C67.7494 19.8742 67.2736 20.4022 66.6672 20.7786C66.0712 21.155 65.4021 21.3432 64.6597 21.3432C64.0219 21.3432 63.4573 21.2125 62.9659 20.9511C62.485 20.6897 62.0929 20.3604 61.7897 19.963V25.3424H59.594V12.5134H61.7897V13.7681ZM66.3849 16.8264C66.3849 16.3036 66.2751 15.854 66.0556 15.4776C65.8464 15.0907 65.5641 14.798 65.2087 14.5993C64.8636 14.4007 64.4872 14.3013 64.0795 14.3013C63.6821 14.3013 63.3057 14.4059 62.9502 14.615C62.6052 14.8137 62.3229 15.1064 62.1033 15.4933C61.8942 15.8801 61.7897 16.3349 61.7897 16.8577C61.7897 17.3805 61.8942 17.8353 62.1033 18.2222C62.3229 18.609 62.6052 18.907 62.9502 19.1161C63.3057 19.3148 63.6821 19.4141 64.0795 19.4141C64.4872 19.4141 64.8636 19.3096 65.2087 19.1005C65.5641 18.8913 65.8464 18.5934 66.0556 18.2065C66.2751 17.8196 66.3849 17.3596 66.3849 16.8264Z" fill="#111D31"/>
<path d="M72.8894 13.7681C73.1717 13.3708 73.5585 13.0414 74.0499 12.78C74.5518 12.5082 75.1216 12.3723 75.7594 12.3723C76.5018 12.3723 77.1709 12.5553 77.7669 12.9212C78.3733 13.2871 78.849 13.8099 79.1941 14.4895C79.5496 15.1587 79.7273 15.9376 79.7273 16.8264C79.7273 17.7151 79.5496 18.5045 79.1941 19.1946C78.849 19.8742 78.3733 20.4022 77.7669 20.7786C77.1709 21.155 76.5018 21.3432 75.7594 21.3432C75.1216 21.3432 74.557 21.2125 74.0656 20.9511C73.5846 20.6897 73.1926 20.3604 72.8894 19.963V25.3424H70.6937V12.5134H72.8894V13.7681ZM77.4846 16.8264C77.4846 16.3036 77.3748 15.854 77.1552 15.4776C76.9461 15.0907 76.6638 14.798 76.3083 14.5993C75.9633 14.4007 75.5869 14.3013 75.1791 14.3013C74.7818 14.3013 74.4054 14.4059 74.0499 14.615C73.7049 14.8137 73.4226 15.1064 73.203 15.4933C72.9939 15.8801 72.8894 16.3349 72.8894 16.8577C72.8894 17.3805 72.9939 17.8353 73.203 18.2222C73.4226 18.609 73.7049 18.907 74.0499 19.1161C74.4054 19.3148 74.7818 19.4141 75.1791 19.4141C75.5869 19.4141 75.9633 19.3096 76.3083 19.1005C76.6638 18.8913 76.9461 18.5934 77.1552 18.2065C77.3748 17.8196 77.4846 17.3596 77.4846 16.8264Z" fill="#111D31"/>
<path d="M83.989 9.59632V21.202H81.7934V9.59632H83.989Z" fill="#111D31"/>
<path d="M94.9411 12.5134L89.5617 25.3111H87.2248L89.1068 20.9825L85.6251 12.5134H88.0874L90.3301 18.5829L92.6042 12.5134H94.9411Z" fill="#111D31"/>
<path d="M107.385 12.388C108.452 12.388 109.309 12.7173 109.957 13.376C110.616 14.0243 110.945 14.9339 110.945 16.1049V21.202H108.75V16.4029C108.75 15.7233 108.577 15.2057 108.232 14.8503C107.887 14.4843 107.417 14.3013 106.821 14.3013C106.225 14.3013 105.749 14.4843 105.394 14.8503C105.049 15.2057 104.876 15.7233 104.876 16.4029V21.202H102.68V16.4029C102.68 15.7233 102.508 15.2057 102.163 14.8503C101.818 14.4843 101.347 14.3013 100.751 14.3013C100.145 14.3013 99.6639 14.4843 99.3084 14.8503C98.9634 15.2057 98.7908 15.7233 98.7908 16.4029V21.202H96.5952V12.5134H98.7908V13.5642C99.0731 13.1983 99.4339 12.9107 99.873 12.7016C100.323 12.4925 100.814 12.388 101.347 12.388C102.027 12.388 102.633 12.5343 103.167 12.8271C103.7 13.1094 104.113 13.5172 104.405 14.0504C104.688 13.5485 105.096 13.146 105.629 12.8428C106.172 12.5396 106.758 12.388 107.385 12.388Z" fill="#111D31"/>
<path d="M114.613 11.4783C114.226 11.4783 113.902 11.3581 113.641 11.1176C113.39 10.8667 113.264 10.5582 113.264 10.1923C113.264 9.82634 113.39 9.52313 113.641 9.28265C113.902 9.03172 114.226 8.90625 114.613 8.90625C115 8.90625 115.319 9.03172 115.57 9.28265C115.831 9.52313 115.962 9.82634 115.962 10.1923C115.962 10.5582 115.831 10.8667 115.57 11.1176C115.319 11.3581 115 11.4783 114.613 11.4783ZM115.695 12.5134V21.202H113.5V12.5134H115.695Z" fill="#111D31"/>
<path d="M123.15 12.388C124.185 12.388 125.021 12.7173 125.659 13.376C126.297 14.0243 126.616 14.9339 126.616 16.1049V21.202H124.42V16.4029C124.42 15.7128 124.248 15.1848 123.903 14.8189C123.558 14.4425 123.087 14.2543 122.491 14.2543C121.885 14.2543 121.404 14.4425 121.048 14.8189C120.703 15.1848 120.531 15.7128 120.531 16.4029V21.202H118.335V12.5134H120.531V13.5956C120.823 13.2192 121.195 12.9264 121.644 12.7173C122.104 12.4977 122.606 12.388 123.15 12.388Z" fill="#111D31"/>
<path d="M131.731 14.317V18.5202C131.731 18.8129 131.799 19.0273 131.935 19.1632C132.081 19.2887 132.321 19.3514 132.656 19.3514H133.675V21.202H132.295C130.445 21.202 129.519 20.3028 129.519 18.5045V14.317H128.484V12.5134H129.519V10.3648H131.731V12.5134H133.675V14.317H131.731Z" fill="#111D31"/>
<circle cx="136.634" cy="5.62972" r="4.3172" fill="white" stroke="#111D31" stroke-width="0.796903"/>
<path d="M137.15 7.51562L136.335 6.03737H136.106V7.51562H135.152V3.59964H136.753C137.062 3.59964 137.324 3.65357 137.54 3.76142C137.759 3.86926 137.923 4.01802 138.031 4.20768C138.139 4.39363 138.193 4.60188 138.193 4.83245C138.193 5.09277 138.118 5.3252 137.97 5.52974C137.825 5.73428 137.609 5.87932 137.322 5.96485L138.226 7.51562H137.15ZM136.106 5.36239H136.698C136.872 5.36239 137.003 5.31963 137.088 5.23409C137.177 5.14856 137.222 5.02769 137.222 4.8715C137.222 4.72275 137.177 4.6056 137.088 4.52007C137.003 4.43453 136.872 4.39177 136.698 4.39177H136.106V5.36239Z" fill="#111D31"/>
</svg>
